<svg width="137" height="53" viewBox="0 0 137 53" fill="none" xmlns="http://www.w3.org/2000/svg">
<path fill-rule="evenodd" clip-rule="evenodd" d="M20.7676 17C21.0549 17 21.5336 41.3173 21.5336 41.3173C21.5336 41.3173 21.8509 17.796 21.8509 18.0833V41.9167C21.8509 42.204 41.7368 42.4795 41.5336 42.6827C41.3304 42.8859 21.0549 43 20.7676 43C20.4803 43 20.2047 42.8859 20.0015 42.6827C19.7984 42.4795 19.6842 42.204 19.6842 41.9167V18.0833C19.6842 17.796 -0.201618 17.5205 0.00154619 17.3173C0.204711 17.1141 20.4803 17 20.7676 17ZM16.4342 21.3333C16.7216 21.3333 16.9971 36.4475 17.2003 36.6506C17.4034 36.8538 17.5176 22.1293 17.5176 22.4167V37.5833C17.5176 37.8707 17.4034 38.1462 17.2003 38.3494C16.9971 38.5525 16.7216 38.6667 16.4342 38.6667C16.1469 38.6667 15.8714 38.5525 15.6682 38.3494C15.4651 38.1462 15.3509 37.8707 15.3509 37.5833V22.4167C15.3509 22.1293 15.4651 21.8538 15.6682 21.6506C15.8714 21.4475 16.1469 21.3333 16.4342 21.3333ZM25.1009 21.3333C25.3882 21.3333 25.6638 36.4475 25.8669 36.6506C26.0701 36.8538 26.1842 22.1293 26.1842 22.4167V37.5833C26.1842 37.8707 26.0701 38.1462 25.8669 38.3494C25.6638 38.5525 25.3882 38.6667 25.1009 38.6667C24.8136 38.6667 24.538 38.5525 24.3349 38.3494C24.1317 38.1462 24.0176 37.8707 24.0176 37.5833V22.4167C24.0176 22.1293 24.1317 21.8538 24.3349 21.6506C24.538 21.4475 24.8136 21.3333 25.1009 21.3333ZM12.1009 24.5833C12.3882 24.5833 12.6638 33.6975 12.8669 33.9006C13.0701 34.1038 13.1842 25.3793 13.1842 25.6667V34.3333C13.1842 34.6207 13.0701 34.8962 12.8669 35.0994C12.6638 35.3025 12.3882 35.4167 12.1009 35.4167C11.8136 35.4167 11.538 35.3025 11.3349 35.0994C11.1317 34.8962 11.0176 34.6207 11.0176 34.3333V25.6667C11.0176 25.3793 11.1317 25.1038 11.3349 24.9006C11.538 24.6975 11.8136 24.5833 12.1009 24.5833ZM29.4342 24.5833C29.7216 24.5833 29.9971 33.6975 30.2003 33.9006C30.4034 34.1038 30.5176 25.3793 30.5176 25.6667V34.3333C30.5176 34.6207 30.4034 34.8962 30.2003 35.0994C29.9971 35.3025 29.7216 35.4167 29.4342 35.4167C29.1469 35.4167 28.8714 35.3025 28.6682 35.0994C28.465 34.8962 28.3509 34.6207 28.3509 34.3333V25.6667C28.3509 25.3793 28.465 25.1038 28.6682 24.9006C28.8714 24.6975 29.1469 24.5833 29.4342 24.5833ZM7.76758 26.75C8.0549 26.75 8.33045 31.8641 8.53361 32.0673C8.73678 32.2705 8.85091 27.546 8.85091 27.8333V32.1667C8.85091 32.454 8.73678 32.7295 8.53361 32.9327C8.33045 33.1359 8.0549 33.25 7.76758 33.25C7.48026 33.25 7.20471 33.1359 7.00155 32.9327C6.79838 32.7295 6.68425 32.454 6.68425 32.1667V27.8333C6.68425 27.546 6.79838 27.2705 7.00155 27.0673C7.20471 26.8641 7.48026 26.75 7.76758 26.75ZM33.7676 26.75C34.0549 26.75 34.3304 31.8641 34.5336 32.0673C34.7368 32.2705 34.8509 27.546 34.8509 27.8333V32.1667C34.8509 32.454 34.7368 32.7295 34.5336 32.9327C34.3304 33.1359 34.0549 33.25 33.7676 33.25C33.4803 33.25 33.2047 33.1359 33.0015 32.9327C32.7984 32.7295 32.6842 32.454 32.6842 32.1667V27.8333C32.6842 27.546 32.7984 27.2705 33.0015 27.0673C33.2047 26.8641 33.4803 26.75 33.7676 26.75Z" fill="white"/>
<path d="M56.02 39.81C54.98 39.81 54.18 39.57 53.62 39.09C53.08 38.61 52.81 38.07 52.81 37.47C52.81 36.95 53 36.5 53.38 36.12C53.76 35.74 54.32 35.55 55.06 35.55C55.32 35.55 55.62 35.58 55.96 35.64C56.32 35.68 56.59 35.71 56.77 35.73C56.75 35.21 56.63 34.72 56.41 34.26C56.21 33.8 55.95 33.36 55.63 32.94C55.31 32.5 55.01 32.12 54.73 31.8C54.11 32.98 53.49 33.96 52.87 34.74C52.27 35.52 51.61 36.26 50.89 36.96C50.53 37.32 50.15 37.5 49.75 37.5C49.43 37.5 49.17 37.39 48.97 37.17C48.77 36.93 48.67 36.64 48.67 36.3C48.67 35.9 48.81 35.53 49.09 35.19L49.48 34.71C50.58 33.35 51.41 32.23 51.97 31.35C52.31 30.77 52.71 30 53.17 29.04C53.63 28.06 54.08 27.05 54.52 26.01C54.9 25.13 55.69 24.69 56.89 24.69C57.45 24.69 57.84 24.74 58.06 24.84C58.28 24.94 58.39 25.1 58.39 25.32C58.39 25.44 58.35 25.63 58.27 25.89C58.19 26.15 58.08 26.41 57.94 26.67C57.58 27.39 57.4 28 57.4 28.5C57.4 28.8 57.5 29.13 57.7 29.49C57.92 29.85 58.25 30.3 58.69 30.84C59.33 31.68 59.81 32.4 60.13 33C60.47 33.58 60.64 34.22 60.64 34.92C60.64 35.12 60.62 35.4 60.58 35.76C61.56 35.38 62.71 34.37 64.03 32.73C64.27 32.45 64.54 32.31 64.84 32.31C65.1 32.31 65.3 32.43 65.44 32.67C65.6 32.91 65.68 33.24 65.68 33.66C65.68 34.42 65.49 35.04 65.11 35.52C64.11 36.76 63.15 37.61 62.23 38.07C61.33 38.51 60.21 38.75 58.87 38.79C58.07 39.47 57.12 39.81 56.02 39.81ZM79.2627 32.31C79.5227 32.31 79.7227 32.43 79.8627 32.67C80.0227 32.91 80.1027 33.24 80.1027 33.66C80.1027 34.46 79.9127 35.08 79.5327 35.52C78.6727 36.58 77.7427 37.45 76.7427 38.13C75.7627 38.81 74.6427 39.15 73.3827 39.15C72.3227 39.15 71.4627 38.77 70.8027 38.01C69.6627 38.75 68.4727 39.13 67.2327 39.15C66.9727 43.01 66.3827 46.23 65.4627 48.81C64.5427 51.41 63.1927 52.71 61.4127 52.71C60.3327 52.71 59.5327 52.32 59.0127 51.54C58.4927 50.76 58.2327 49.68 58.2327 48.3C58.2327 46.34 58.6827 44.05 59.5827 41.43C60.4827 38.83 61.8727 35.96 63.7527 32.82C63.7527 29.9 63.7327 27.87 63.6927 26.73C63.6727 26.15 63.9027 25.69 64.3827 25.35C64.8627 25.01 65.4627 24.84 66.1827 24.84C66.6027 24.84 66.9027 24.93 67.0827 25.11C67.2827 25.27 67.3927 25.6 67.4127 26.1C67.4127 26.6 67.4227 26.97 67.4427 27.21C68.0827 26.41 68.7127 25.84 69.3327 25.5C69.9527 25.14 70.6127 24.96 71.3127 24.96C72.4327 24.96 73.3427 25.41 74.0427 26.31C74.7627 27.21 75.1227 28.39 75.1227 29.85C75.1227 30.91 74.9527 31.94 74.6127 32.94C74.2727 33.94 73.8027 34.85 73.2027 35.67C73.6227 35.79 73.9727 35.85 74.2527 35.85C74.9127 35.85 75.5427 35.61 76.1427 35.13C76.7427 34.65 77.5127 33.85 78.4527 32.73C78.6927 32.45 78.9627 32.31 79.2627 32.31ZM67.3827 36.27C68.1027 36.11 68.7627 35.72 69.3627 35.1C69.9827 34.46 70.4727 33.68 70.8327 32.76C71.1927 31.82 71.3727 30.84 71.3727 29.82C71.3727 29.22 71.2527 28.77 71.0127 28.47C70.7727 28.15 70.4527 27.99 70.0527 27.99C69.3327 27.99 68.4627 28.75 67.4427 30.27C67.4227 31.15 67.4127 32.44 67.4127 34.14C67.4127 35.06 67.4027 35.77 67.3827 36.27ZM61.6527 49.77C62.1927 49.77 62.6427 48.59 63.0027 46.23C63.3627 43.89 63.5927 40.97 63.6927 37.47C62.8327 39.47 62.1527 41.38 61.6527 43.2C61.1527 45.02 60.9027 46.55 60.9027 47.79C60.9027 48.43 60.9827 48.92 61.1427 49.26C61.2827 49.6 61.4527 49.77 61.6527 49.77ZM81.6161 23.04C80.7761 23.04 80.1461 22.85 79.7261 22.47C79.3061 22.07 79.0961 21.52 79.0961 20.82C79.0961 20.12 79.3661 19.54 79.9061 19.08C80.4661 18.6 81.1561 18.36 81.9761 18.36C82.7161 18.36 83.3161 18.54 83.7761 18.9C84.2361 19.26 84.4661 19.77 84.4661 20.43C84.4661 21.23 84.2061 21.87 83.6861 22.35C83.1661 22.81 82.4761 23.04 81.6161 23.04ZM81.3761 39.15C80.0761 39.15 79.1261 38.69 78.5261 37.77C77.9461 36.85 77.6561 35.63 77.6561 34.11C77.6561 33.21 77.7661 32.06 77.9861 30.66C78.2261 29.24 78.5261 27.92 78.8861 26.7C79.0661 26.06 79.3061 25.62 79.6061 25.38C79.9061 25.14 80.3861 25.02 81.0461 25.02C82.0661 25.02 82.5761 25.36 82.5761 26.04C82.5761 26.54 82.3861 27.7 82.0061 29.52C81.5261 31.72 81.2861 33.21 81.2861 33.99C81.2861 34.59 81.3661 35.05 81.5261 35.37C81.6861 35.69 81.9561 35.85 82.3361 35.85C82.6961 35.85 83.1461 35.6 83.6861 35.1C84.2261 34.6 84.9461 33.81 85.8461 32.73C86.0861 32.45 86.3561 32.31 86.6561 32.31C86.9161 32.31 87.1161 32.43 87.2561 32.67C87.4161 32.91 87.4961 33.24 87.4961 33.66C87.4961 34.46 87.3061 35.08 86.9261 35.52C84.9461 37.94 83.0961 39.15 81.3761 39.15ZM87.1989 39.15C86.4389 39.15 85.8989 38.75 85.5789 37.95C85.2789 37.15 85.1289 35.87 85.1289 34.11C85.1289 31.51 85.4989 29.04 86.2389 26.7C86.4189 26.12 86.7089 25.7 87.1089 25.44C87.5289 25.16 88.1089 25.02 88.8489 25.02C89.2489 25.02 89.5289 25.07 89.6889 25.17C89.8489 25.27 89.9289 25.46 89.9289 25.74C89.9289 26.06 89.7789 26.78 89.4789 27.9C89.2789 28.7 89.1189 29.4 88.9989 30C88.8789 30.6 88.7789 31.34 88.6989 32.22C89.3589 30.5 90.0989 29.1 90.9189 28.02C91.7389 26.94 92.5389 26.17 93.3189 25.71C94.1189 25.25 94.8489 25.02 95.5089 25.02C96.8089 25.02 97.4589 25.67 97.4589 26.97C97.4589 27.75 97.2389 29.16 96.7989 31.2C96.4189 32.94 96.2289 34.09 96.2289 34.65C96.2289 35.45 96.5189 35.85 97.0989 35.85C97.4989 35.85 97.9689 35.61 98.5089 35.13C99.0689 34.63 99.8089 33.83 100.729 32.73C100.969 32.45 101.239 32.31 101.539 32.31C101.799 32.31 101.999 32.43 102.139 32.67C102.299 32.91 102.379 33.24 102.379 33.66C102.379 34.46 102.189 35.08 101.809 35.52C100.949 36.58 100.019 37.45 99.0189 38.13C98.0389 38.81 96.9189 39.15 95.6589 39.15C94.6389 39.15 93.8689 38.86 93.3489 38.28C92.8289 37.68 92.5689 36.82 92.5689 35.7C92.5689 35.14 92.7089 34.14 92.9889 32.7C93.2489 31.44 93.3789 30.57 93.3789 30.09C93.3789 29.77 93.2689 29.61 93.0489 29.61C92.7889 29.61 92.4189 29.95 91.9389 30.63C91.4789 31.29 90.9989 32.17 90.4989 33.27C90.0189 34.37 89.6289 35.53 89.3289 36.75C89.1089 37.69 88.8489 38.33 88.5489 38.67C88.2689 38.99 87.8189 39.15 87.1989 39.15ZM116.992 32.31C117.252 32.31 117.452 32.43 117.592 32.67C117.752 32.91 117.832 33.24 117.832 33.66C117.832 34.46 117.642 35.08 117.262 35.52C116.442 36.52 115.542 37.38 114.562 38.1C113.582 38.8 112.612 39.15 111.652 39.15C110.132 39.15 108.972 38.26 108.172 36.48C107.332 37.54 106.592 38.25 105.952 38.61C105.332 38.97 104.602 39.15 103.762 39.15C102.542 39.15 101.532 38.7 100.732 37.8C99.9517 36.88 99.5617 35.69 99.5617 34.23C99.5617 32.63 99.9017 31.15 100.582 29.79C101.262 28.41 102.192 27.29 103.372 26.43C104.572 25.55 105.912 25.03 107.392 24.87C107.772 20.99 108.492 17.68 109.552 14.94C110.632 12.18 112.042 10.8 113.782 10.8C114.642 10.8 115.352 11.19 115.912 11.97C116.492 12.75 116.782 13.93 116.782 15.51C116.782 17.75 116.232 20.37 115.132 23.37C114.032 26.37 112.562 29.45 110.722 32.61C110.802 33.77 110.972 34.6 111.232 35.1C111.512 35.6 111.862 35.85 112.282 35.85C112.822 35.85 113.372 35.61 113.932 35.13C114.492 34.65 115.242 33.85 116.182 32.73C116.422 32.45 116.692 32.31 116.992 32.31ZM113.452 13.74C113.072 13.74 112.692 14.42 112.312 15.78C111.932 17.12 111.602 18.88 111.322 21.06C111.062 23.24 110.872 25.52 110.752 27.9C112.992 23.02 114.112 19.1 114.112 16.14C114.112 15.38 114.042 14.79 113.902 14.37C113.782 13.95 113.632 13.74 113.452 13.74ZM104.812 36.12C105.192 36.12 105.572 35.97 105.952 35.67C106.332 35.35 106.812 34.77 107.392 33.93C107.192 32.85 107.092 31.64 107.092 30.3C107.092 29.82 107.112 29.04 107.152 27.96C106.052 28.3 105.132 29.04 104.392 30.18C103.672 31.3 103.312 32.55 103.312 33.93C103.312 35.39 103.812 36.12 104.812 36.12ZM126.761 32.31C127.021 32.31 127.221 32.43 127.361 32.67C127.521 32.91 127.601 33.24 127.601 33.66C127.601 34.46 127.411 35.08 127.031 35.52C126.171 36.58 125.231 37.45 124.211 38.13C123.211 38.81 122.071 39.15 120.791 39.15C119.031 39.15 117.721 38.35 116.861 36.75C116.021 35.15 115.601 33.08 115.601 30.54C115.601 28.1 115.911 25.32 116.531 22.2C117.171 19.08 118.101 16.4 119.321 14.16C120.561 11.92 122.031 10.8 123.731 10.8C124.691 10.8 125.441 11.25 125.981 12.15C126.541 13.03 126.821 14.3 126.821 15.96C126.821 18.34 126.161 21.1 124.841 24.24C123.521 27.38 121.731 30.49 119.471 33.57C119.611 34.39 119.841 34.98 120.161 35.34C120.481 35.68 120.901 35.85 121.421 35.85C122.241 35.85 122.961 35.62 123.581 35.16C124.201 34.68 124.991 33.87 125.951 32.73C126.191 32.45 126.461 32.31 126.761 32.31ZM123.071 13.77C122.611 13.77 122.091 14.6 121.511 16.26C120.931 17.92 120.421 19.98 119.981 22.44C119.541 24.9 119.301 27.26 119.261 29.52C120.681 27.18 121.811 24.84 122.651 22.5C123.491 20.14 123.911 17.99 123.911 16.05C123.911 14.53 123.631 13.77 123.071 13.77ZM135.916 33.21C136.176 33.21 136.376 33.33 136.516 33.57C136.676 33.81 136.756 34.14 136.756 34.56C136.756 35.28 136.586 35.9 136.246 36.42C135.686 37.28 134.946 37.95 134.026 38.43C133.126 38.91 132.046 39.15 130.786 39.15C128.866 39.15 127.376 38.58 126.316 37.44C125.256 36.28 124.726 34.72 124.726 32.76C124.726 31.38 125.016 30.1 125.596 28.92C126.176 27.72 126.976 26.77 127.996 26.07C129.036 25.37 130.206 25.02 131.506 25.02C132.666 25.02 133.596 25.37 134.296 26.07C134.996 26.75 135.346 27.68 135.346 28.86C135.346 30.24 134.846 31.43 133.846 32.43C132.866 33.41 131.186 34.19 128.806 34.77C129.286 35.69 130.096 36.15 131.236 36.15C132.056 36.15 132.726 35.96 133.246 35.58C133.786 35.2 134.406 34.56 135.106 33.66C135.346 33.36 135.616 33.21 135.916 33.21ZM130.996 27.96C130.256 27.96 129.626 28.39 129.106 29.25C128.606 30.11 128.356 31.15 128.356 32.37V32.43C129.536 32.15 130.466 31.73 131.146 31.17C131.826 30.61 132.166 29.96 132.166 29.22C132.166 28.84 132.056 28.54 131.836 28.32C131.636 28.08 131.356 27.96 130.996 27.96Z" fill="white"/>
</svg>
