<svg width="40" height="40" viewBox="0 0 40 40" fill="none" xmlns="http://www.w3.org/2000/svg">
<path fill-rule="evenodd" clip-rule="evenodd" d="M20 35.9883C10.6167 26.7567 1.66667 18.8267 1.66667 11.985C1.66667 5.66666 6.78 3.33332 10.4683 3.33332C12.655 3.33332 17.3867 4.16832 20 10.7617C22.65 4.14832 27.44 3.34999 29.5433 3.34999C33.7767 3.34999 38.3333 6.05166 38.3333 11.985C38.3333 18.7667 29.7733 26.36 20 35.9883ZM29.5433 1.68332C25.8717 1.68332 22.1333 3.41999 20 7.07999C17.8583 3.40332 14.13 1.66666 10.4683 1.66666C5.16333 1.66666 0 5.31166 0 11.985C0 19.7533 9.285 27.7 20 38.3333C30.7167 27.7 40 19.7533 40 11.985C40 5.29999 34.8417 1.68332 29.5433 1.68332Z" fill="#F22A2A"/>
</svg>
